<svg height="1150" width="720" xmlns="http://www.w3.org/2000/svg">
<rect height="1150" fill="#555" width="720"></rect>
<text fill="#7f7" font-family="Courier New" font-size="12" xml:space="preserve">
<tspan x="10" y="26">6 megabytes installed</tspan>
<tspan x="10" y="42"></tspan>
<tspan x="10" y="58">node_modules</tspan>
<tspan x="10" y="74">└─┬ orchestrate@0.8.2 </tspan>
<tspan x="10" y="90">  ├── kew@0.7.0 </tspan>
<tspan x="10" y="106">  ├─┬ parse-link-header@0.4.1 </tspan>
<tspan x="10" y="122">  │ └── xtend@4.0.1 </tspan>
<tspan x="10" y="138">  └─┬ request@2.78.0 </tspan>
<tspan x="10" y="154">    ├── aws-sign2@0.6.0 </tspan>
<tspan x="10" y="170">    ├── aws4@1.6.0 </tspan>
<tspan x="10" y="186">    ├── caseless@0.11.0 </tspan>
<tspan x="10" y="202">    ├─┬ combined-stream@1.0.5 </tspan>
<tspan x="10" y="218">    │ └── delayed-stream@1.0.0 </tspan>
<tspan x="10" y="234">    ├── extend@3.0.0 </tspan>
<tspan x="10" y="250">    ├── forever-agent@0.6.1 </tspan>
<tspan x="10" y="266">    ├─┬ form-data@2.1.4 </tspan>
<tspan x="10" y="282">    │ └── asynckit@0.4.0 </tspan>
<tspan x="10" y="298">    ├─┬ har-validator@2.0.6 </tspan>
<tspan x="10" y="314">    │ ├─┬ chalk@1.1.3 </tspan>
<tspan x="10" y="330">    │ │ ├── ansi-styles@2.2.1 </tspan>
<tspan x="10" y="346">    │ │ ├── escape-string-regexp@1.0.5 </tspan>
<tspan x="10" y="362">    │ │ ├─┬ has-ansi@2.0.0 </tspan>
<tspan x="10" y="378">    │ │ │ └── ansi-regex@2.1.1 </tspan>
<tspan x="10" y="394">    │ │ ├── strip-ansi@3.0.1 </tspan>
<tspan x="10" y="410">    │ │ └── supports-color@2.0.0 </tspan>
<tspan x="10" y="426">    │ ├─┬ commander@2.9.0 </tspan>
<tspan x="10" y="442">    │ │ └── graceful-readlink@1.0.1 </tspan>
<tspan x="10" y="458">    │ ├─┬ is-my-json-valid@2.16.0 </tspan>
<tspan x="10" y="474">    │ │ ├── generate-function@2.0.0 </tspan>
<tspan x="10" y="490">    │ │ ├─┬ generate-object-property@1.2.0 </tspan>
<tspan x="10" y="506">    │ │ │ └── is-property@1.0.2 </tspan>
<tspan x="10" y="522">    │ │ └── jsonpointer@4.0.1 </tspan>
<tspan x="10" y="538">    │ └─┬ pinkie-promise@2.0.1 </tspan>
<tspan x="10" y="554">    │   └── pinkie@2.0.4 </tspan>
<tspan x="10" y="570">    ├─┬ hawk@3.1.3 </tspan>
<tspan x="10" y="586">    │ ├── boom@2.10.1 </tspan>
<tspan x="10" y="602">    │ ├── cryptiles@2.0.5 </tspan>
<tspan x="10" y="618">    │ ├── hoek@2.16.3 </tspan>
<tspan x="10" y="634">    │ └── sntp@1.0.9 </tspan>
<tspan x="10" y="650">    ├─┬ http-signature@1.1.1 </tspan>
<tspan x="10" y="666">    │ ├── assert-plus@0.2.0 </tspan>
<tspan x="10" y="682">    │ ├─┬ jsprim@1.4.0 </tspan>
<tspan x="10" y="698">    │ │ ├── assert-plus@1.0.0 </tspan>
<tspan x="10" y="714">    │ │ ├── extsprintf@1.0.2 </tspan>
<tspan x="10" y="730">    │ │ ├── json-schema@0.2.3 </tspan>
<tspan x="10" y="746">    │ │ └── verror@1.3.6 </tspan>
<tspan x="10" y="762">    │ └─┬ sshpk@1.13.0 </tspan>
<tspan x="10" y="778">    │   ├── asn1@0.2.3 </tspan>
<tspan x="10" y="794">    │   ├── assert-plus@1.0.0 </tspan>
<tspan x="10" y="810">    │   ├── bcrypt-pbkdf@1.0.1 </tspan>
<tspan x="10" y="826">    │   ├─┬ dashdash@1.14.1 </tspan>
<tspan x="10" y="842">    │   │ └── assert-plus@1.0.0 </tspan>
<tspan x="10" y="858">    │   ├── ecc-jsbn@0.1.1 </tspan>
<tspan x="10" y="874">    │   ├─┬ getpass@0.1.6 </tspan>
<tspan x="10" y="890">    │   │ └── assert-plus@1.0.0 </tspan>
<tspan x="10" y="906">    │   ├── jodid25519@1.0.2 </tspan>
<tspan x="10" y="922">    │   ├── jsbn@0.1.1 </tspan>
<tspan x="10" y="938">    │   └── tweetnacl@0.14.5 </tspan>
<tspan x="10" y="954">    ├── is-typedarray@1.0.0 </tspan>
<tspan x="10" y="970">    ├── isstream@0.1.2 </tspan>
<tspan x="10" y="986">    ├── json-stringify-safe@5.0.1 </tspan>
<tspan x="10" y="1002">    ├─┬ mime-types@2.1.15 </tspan>
<tspan x="10" y="1018">    │ └── mime-db@1.27.0 </tspan>
<tspan x="10" y="1034">    ├── node-uuid@1.4.8 </tspan>
<tspan x="10" y="1050">    ├── oauth-sign@0.8.2 </tspan>
<tspan x="10" y="1066">    ├── qs@6.3.2 </tspan>
<tspan x="10" y="1082">    ├── stringstream@0.0.5 </tspan>
<tspan x="10" y="1098">    ├─┬ tough-cookie@2.3.2 </tspan>
<tspan x="10" y="1114">    │ └── punycode@1.4.1 </tspan>
<tspan x="10" y="1130">    └── tunnel-agent@0.4.3</tspan>
</text>
</svg>
